<?xml version="1.0" encoding="utf-8"?>
<!-- Generator: Adobe Illustrator 25.0.1, SVG Export Plug-In . SVG Version: 6.00 Build 0)  -->
<svg version="1.1" id="katman_1" xmlns="http://www.w3.org/2000/svg" xmlns:xlink="http://www.w3.org/1999/xlink" x="0px" y="0px"
	 viewBox="0 0 560 400" style="enable-background:new 0 0 560 400;" xml:space="preserve">
<style type="text/css">
	.st0{fill:#283D99;}
</style>
<path class="st0" d="M454,175.9h26.8v39.9c0,0,0,5.3,3.9,5.3c3.9,0,3.3-5.2,3.3-5.2v-39.9h27.4v43.2c0,0,0,25.7-30.3,25.7
	c-30.3,0-31-21.9-31.1-24.8L454,175.9z M376.2,242.7h-27.4v-42.1h-15.4v-24.5h42.1V155H401v26.1c0,0,10.4-8.1,22.9-7.2
	c12.4,0.9,22.5,6.3,23.2,7.7l-7.1,17.3c0,0-12.4-6.4-15.9-5.5c-3.5,0.9-4.3,2.3-2.6,4.3c1.7,2,10.1,2.8,12.2,4
	c2.1,1.2,11.6,3.6,13.3,15.9c1.7,12.3-6.9,24-18.4,25.7c-11.5,1.7-26.7,1.7-38.7-7.6l7.2-17.7c0,0,10.2,6,15.4,6.5
	c5.2,0.5,7.5,0.7,8.1-1.7c0.7-2.4-3.5-3.9-6.4-4.4c-2.9-0.5-15-3.6-17.9-11.1c-2.9-7.5-3.8-16.4,4.1-25.9h-24.2V242.7z M148.8,172.6
	c-19.5,0-35.3,16-35.3,35.7s15.8,35.7,35.3,35.7s35.3-16,35.3-35.7S168.3,172.6,148.8,172.6z M209.6,242.3h-24.8l10.5-66.7h24.9
	l7.9,24.9l8.2-24.8h25l9.4,60.9l20.9-60.9h26.7l22.2,66.5h-27.7l-8-31.1l-7.7,31.3h-50.7l-3.9-24.1l-6.8,23.9h-15.4l-6.8-24
	L209.6,242.3z M72.1,241.5H44.6V175h27.6v31.1L85.8,175h31.1l-15,32.4l15.9,34.1H86.6l-14.5-32.3V241.5z M148.6,217.7
	c-5.1,0-9.3-4.2-9.3-9.3c0-5.2,4.1-9.3,9.3-9.3c5.1,0,9.3,4.2,9.3,9.3C157.9,213.5,153.7,217.7,148.6,217.7L148.6,217.7z"/>
</svg>
